<svg width="12" height="12" viewBox="0 0 12 12" fill="none" xmlns="http://www.w3.org/2000/svg">
<path d="M4.21875 11C4.65022 11 5 10.6502 5 10.2188C5 9.78728 4.65022 9.4375 4.21875 9.4375C3.78728 9.4375 3.4375 9.78728 3.4375 10.2188C3.4375 10.6502 3.78728 11 4.21875 11Z" fill="white"/>
<path d="M8.28125 11C8.71272 11 9.0625 10.6502 9.0625 10.2188C9.0625 9.78728 8.71272 9.4375 8.28125 9.4375C7.84978 9.4375 7.5 9.78728 7.5 10.2188C7.5 10.6502 7.84978 11 8.28125 11Z" fill="white"/>
<path d="M10.3435 2.99197C10.3144 2.95415 10.277 2.92351 10.2342 2.90238C10.1914 2.88125 10.1444 2.87021 10.0967 2.87009H2.87791L2.73728 2.42322C2.72184 2.37524 2.69501 2.33171 2.6591 2.29634C2.62318 2.26097 2.57924 2.23481 2.53103 2.22009L1.24978 1.82634C1.21039 1.81424 1.16899 1.81001 1.12796 1.8139C1.08693 1.81779 1.04707 1.82973 1.01065 1.84903C0.9371 1.888 0.882045 1.95459 0.857595 2.03416C0.833146 2.11372 0.841304 2.19974 0.880277 2.27329C0.919249 2.34684 0.985843 2.4019 1.06541 2.42634L2.18728 2.77009L3.61853 7.29197L3.10916 7.71072L3.06853 7.75135C2.94256 7.89721 2.87119 8.08231 2.86663 8.27499C2.86207 8.46766 2.92461 8.65594 3.04353 8.8076C3.12871 8.91118 3.23694 8.99339 3.35958 9.04765C3.48221 9.10191 3.61584 9.12672 3.74978 9.1201H8.96541C9.04829 9.1201 9.12777 9.08717 9.18638 9.02857C9.24498 8.96996 9.27791 8.89048 9.27791 8.8076C9.27791 8.72472 9.24498 8.64523 9.18638 8.58662C9.12777 8.52802 9.04829 8.4951 8.96541 8.4951H3.69978C3.6638 8.49387 3.62874 8.48338 3.59799 8.46464C3.56724 8.44591 3.54184 8.41956 3.52425 8.38814C3.50666 8.35673 3.49746 8.32131 3.49756 8.2853C3.49765 8.24929 3.50703 8.21392 3.52478 8.1826L4.27791 7.5576H9.09978C9.17117 7.55968 9.24111 7.53724 9.29797 7.49403C9.35483 7.45082 9.39517 7.38943 9.41228 7.3201L10.4123 3.25759C10.4218 3.21101 10.4205 3.16286 10.4086 3.11683C10.3967 3.0708 10.3744 3.0281 10.3435 2.99197Z" fill="white"/>
</svg>
